<svg xmlns="http://www.w3.org/2000/svg" viewBox="0 0 3257.8 800.0" width="3258" height="800" role="img" aria-label="TERANOVA GROUP"><g transform="translate(40,40)"><polygon points="360.00,38.57 38.57,360.00 360.00,681.43" fill="#0b1b35"/><polygon points="360.00,38.57 681.43,360.00 360.00,681.43" fill="#2563d4" fill-opacity="1.0"/><line x1="360.00" y1="38.57" x2="360.00" y2="681.43" stroke="#ffffff" stroke-width="30.86" stroke-linecap="butt"/><g transform="translate(1038.00,359.58) scale(0.36000,-0.36000)" fill="#0b1b35" fill-opacity="1.0"><path transform="translate(0.0,0)" d="M230 0H409V596H611V745H29V596H230Z"/><path transform="translate(704.7,0)" d="M86 0H569V150H265V308H514V458H265V596H558V745H86Z"/><path transform="translate(1399.4,0)" d="M265 403V603H345C430 603 476 580 476 510C476 440 430 403 345 403ZM488 0H688L522 295C599 331 650 401 650 510C650 690 518 745 359 745H86V0H265V262H351Z"/><path transform="translate(2172.1,0)" d="M-8 0H174L217 171H437L480 0H668L437 745H223ZM251 309 267 372C286 446 306 533 324 611H328C348 535 367 446 387 372L403 309Z"/><path transform="translate(2896.8,0)" d="M86 0H256V247C256 337 241 439 233 522H238L311 359L495 0H677V745H507V498C507 409 522 302 531 223H526L453 388L268 745H86Z"/><path transform="translate(3725.5,0)" d="M393 -14C596 -14 734 132 734 376C734 619 596 758 393 758C190 758 52 620 52 376C52 132 190 -14 393 -14ZM393 140C295 140 235 232 235 376C235 520 295 605 393 605C491 605 552 520 552 376C552 232 491 140 393 140Z"/><path transform="translate(4576.2,0)" d="M214 0H429L652 745H470L386 405C365 325 350 249 328 167H323C302 249 287 325 265 405L180 745H-9Z"/><path transform="translate(5283.9,0)" d="M-8 0H174L217 171H437L480 0H668L437 745H223ZM251 309 267 372C286 446 306 533 324 611H328C348 535 367 446 387 372L403 309Z"/></g><g transform="translate(1038.00,628.62) scale(0.21200,-0.21200)" fill="#2563d4" fill-opacity="1.0"><path transform="translate(0.0,0)" d="M398 -14C498 -14 581 24 630 73V392H379V296H524V124C499 102 455 88 410 88C257 88 176 196 176 370C176 543 267 649 404 649C475 649 520 619 557 583L619 657C575 704 505 750 401 750C205 750 56 606 56 367C56 125 201 -14 398 -14Z"/><path transform="translate(941.0,0)" d="M213 390V643H324C430 643 489 612 489 523C489 434 430 390 324 390ZM499 0H630L450 312C543 341 604 409 604 523C604 683 490 737 338 737H97V0H213V297H333Z"/><path transform="translate(1837.0,0)" d="M377 -14C567 -14 698 134 698 371C698 608 567 750 377 750C188 750 56 609 56 371C56 134 188 -14 377 -14ZM377 88C255 88 176 199 176 371C176 543 255 649 377 649C499 649 579 543 579 371C579 199 499 88 377 88Z"/><path transform="translate(2831.0,0)" d="M367 -14C530 -14 640 76 640 316V737H528V309C528 142 460 88 367 88C275 88 209 142 209 309V737H93V316C93 76 204 -14 367 -14Z"/><path transform="translate(3804.0,0)" d="M97 0H213V279H324C484 279 602 353 602 513C602 680 484 737 320 737H97ZM213 373V643H309C426 643 487 611 487 513C487 418 430 373 314 373Z"/></g></g></svg>